<svg width="30" height="24" viewBox="0 0 30 24" fill="none" xmlns="http://www.w3.org/2000/svg">
<path d="M12.1144 16.0641C11.1542 16.3325 10.4283 17.0092 10.0695 17.4628C9.91786 17.6573 9.85029 17.9767 9.73263 18.195C9.68061 18.2903 8.98199 19.6404 8.35337 20.0439C7.65913 20.4848 7.03245 20.5806 6.69651 21.2734C6.56136 21.55 6.50496 21.8544 6.54774 22.1456C6.61046 22.5909 6.90216 23.0105 7.49966 23.2706C8.49339 23.7042 12.0555 23.307 14.0415 20.8538C14.6167 20.2583 14.8714 19.4109 14.975 18.634C15.1899 17.0126 13.6915 15.6246 12.1144 16.0641Z" fill="#32ABF2"/>
<path d="M9.76097 16.0958C9.79014 16.052 9.81931 16.0102 9.84945 15.9567C9.89564 15.876 9.94328 15.7846 9.99385 15.6869C9.26946 15.226 8.22662 14.4049 8.18092 14.3689L8.10751 14.312L8.11043 14.3081C8.04237 14.2532 7.9743 14.2021 7.90575 14.1428C7.7531 14.1798 7.60627 14.223 7.46869 14.2746C6.60574 14.5974 6.02525 15.1774 5.61347 15.6203C5.47588 15.7681 5.35775 15.8998 5.24982 16.0048C4.65864 16.5756 4.01009 16.8999 3.73054 17.0239C3.67366 17.0598 3.6158 17.0958 3.55698 17.1318C2.52581 17.7619 2.58027 18.7639 2.69354 19.1489C2.80682 19.5339 3.24048 20.57 4.69607 20.5442C5.82349 20.5243 7.05058 19.9248 7.54696 19.6555C7.54696 19.6555 9.64721 18.3078 10.429 16.6913C10.4304 16.6908 10.1635 16.4594 9.76097 16.0958Z" fill="#32ABF2"/>
<path d="M6.59752 12.5263C6.3311 12.166 6.0958 11.8145 5.92613 11.5476C5.85806 11.4397 5.80069 11.3468 5.75548 11.271C5.55566 11.3235 5.30675 11.4081 5.03449 11.5471C4.38011 11.8816 3.71114 12.0644 3.31346 11.9108C2.91626 11.7567 2.04213 11.3648 1.42129 11.8087C0.800452 12.2526 0.599666 13.0654 0.942901 13.6663C1.23801 14.1831 2.00275 14.998 2.86667 15.3295C2.86667 15.3295 4.85072 16.279 7.13231 14.3003C9.09789 12.5963 7.46436 12.5073 6.59752 12.5263Z" fill="#32ABF2"/>
<path d="M14.9848 19.129C20.2681 19.129 24.5511 14.846 24.5511 9.56267C24.5511 4.27933 20.2681 -0.00366211 14.9848 -0.00366211C9.70145 -0.00366211 5.41846 4.27933 5.41846 9.56267C5.41846 14.846 9.70145 19.129 14.9848 19.129Z" fill="#32ABF2"/>
<path d="M17.8558 16.0641C18.816 16.3325 19.5418 17.0092 19.9006 17.4628C20.0523 17.6573 20.1199 17.9767 20.2375 18.195C20.2895 18.2903 20.9882 19.6404 21.6168 20.0439C22.3105 20.4848 22.9377 20.5806 23.2736 21.2734C23.4088 21.55 23.4652 21.8544 23.4224 22.1456C23.3597 22.5909 23.068 23.0105 22.4705 23.2706C21.4767 23.7042 17.9146 23.307 15.9286 20.8538C15.3535 20.2583 15.0987 19.4109 14.9952 18.634C14.7808 17.0126 16.2791 15.6246 17.8558 16.0641Z" fill="#32ABF2"/>
<path d="M20.209 16.0958C20.1798 16.052 20.1507 16.0102 20.1205 15.9567C20.0743 15.876 20.0267 15.7846 19.9761 15.6869C20.7005 15.226 21.7434 14.4049 21.7891 14.3689L21.8625 14.312L21.8595 14.3081C21.9276 14.2532 21.9957 14.2021 22.0637 14.1428C22.2164 14.1798 22.3632 14.223 22.5008 14.2746C23.3637 14.5974 23.9442 15.1774 24.356 15.6203C24.4936 15.7681 24.6117 15.8998 24.7197 16.0048C25.3109 16.5756 25.9594 16.8999 26.2389 17.0239C26.2958 17.0598 26.3537 17.0958 26.4125 17.1318C27.4437 17.7619 27.3892 18.7639 27.2759 19.1489C27.1627 19.5339 26.729 20.57 25.2734 20.5442C24.1465 20.5243 22.9189 19.9248 22.4225 19.6555C22.4225 19.6555 20.3218 18.3078 19.54 16.6913C19.5396 16.6908 19.8069 16.4594 20.209 16.0958Z" fill="#32ABF2"/>
<path d="M23.3734 12.5263C23.6399 12.166 23.8752 11.8145 24.0448 11.5476C24.1129 11.4397 24.1703 11.3468 24.2155 11.271C24.4153 11.3235 24.6642 11.4081 24.9365 11.5471C25.5909 11.8816 26.2598 12.0644 26.6575 11.9108C27.0547 11.7567 27.9288 11.3648 28.5497 11.8087C29.1705 12.2526 29.3713 13.0654 29.0281 13.6663C28.733 14.1831 27.9682 14.998 27.1043 15.3295C27.1043 15.3295 25.1202 16.279 22.8387 14.3003C20.8731 12.5963 22.5066 12.5073 23.3734 12.5263Z" fill="#32ABF2"/>
<path d="M11.6877 10.1848C12.1528 10.1848 12.5298 9.70504 12.5298 9.11326C12.5298 8.52148 12.1528 8.04175 11.6877 8.04175C11.2227 8.04175 10.8457 8.52148 10.8457 9.11326C10.8457 9.70504 11.2227 10.1848 11.6877 10.1848Z" fill="#34056F"/>
<path d="M12.0245 8.65496C12.0245 8.86547 11.8539 9.03612 11.6434 9.03612C11.4329 9.03612 11.2622 8.86547 11.2622 8.65496C11.2622 8.44445 11.4329 8.2738 11.6434 8.2738C11.8539 8.27332 12.0245 8.44396 12.0245 8.65496Z" fill="#F9F9F9"/>
<path d="M18.2825 10.1848C18.7475 10.1848 19.1245 9.70504 19.1245 9.11326C19.1245 8.52148 18.7475 8.04175 18.2825 8.04175C17.8174 8.04175 17.4404 8.52148 17.4404 9.11326C17.4404 9.70504 17.8174 10.1848 18.2825 10.1848Z" fill="#34056F"/>
<path d="M18.6188 8.65496C18.6188 8.86547 18.4481 9.03612 18.2376 9.03612C18.0271 9.03612 17.8564 8.86547 17.8564 8.65496C17.8564 8.44445 18.0271 8.2738 18.2376 8.2738C18.4481 8.27332 18.6188 8.44396 18.6188 8.65496Z" fill="#F9F9F9"/>
<path d="M16.5336 12.41C16.4534 13.3765 16.1282 14.608 14.9857 14.608C14.4217 14.608 14.0571 14.308 13.8232 13.888C14.1072 13.2803 14.8588 12.1981 16.5336 12.41Z" fill="#EB5A55"/>
<path d="M16.5334 12.4101C14.858 12.1981 14.1069 13.2803 13.823 13.888C13.2736 12.9074 13.436 11.271 13.436 11.271C13.8983 11.4694 14.9854 11.429 14.9854 11.429C14.9854 11.429 16.071 11.4694 16.5348 11.271C16.5348 11.271 16.5859 11.7859 16.5334 12.4101Z" fill="#79292A"/>
</svg>
