<svg width="48" height="48" viewBox="0 0 48 48" fill="none" xmlns="http://www.w3.org/2000/svg">
<rect width="48" height="48" rx="1" fill="white"/>
<g clip-path="url(#clip0_2499_50435)">
<path d="M31.8246 24.2073C31.8246 23.5955 31.775 22.9804 31.6691 22.3785H23.1801V25.8443H28.0414C27.8396 26.962 27.1915 27.9508 26.2423 28.5792V30.8279H29.1426C30.8457 29.2604 31.8246 26.9455 31.8246 24.2073Z" fill="#4285F4"/>
<path d="M23.18 33.0006C25.6073 33.0006 27.6543 32.2036 29.1458 30.8279L26.2455 28.5792C25.4386 29.1281 24.3969 29.439 23.1833 29.439C20.8353 29.439 18.8445 27.8549 18.1302 25.7252H15.1373V28.0434C16.6652 31.0826 19.7771 33.0006 23.18 33.0006Z" fill="#34A853"/>
<path d="M18.127 25.7252C17.75 24.6074 17.75 23.397 18.127 22.2793V19.9611H15.1374C13.8609 22.5041 13.8609 25.5003 15.1374 28.0434L18.127 25.7252Z" fill="#FBBC04"/>
<path d="M23.18 18.5622C24.4631 18.5424 25.7032 19.0252 26.6325 19.9115L29.202 17.342C27.575 15.8141 25.4155 14.9742 23.18 15.0006C19.7771 15.0006 16.6652 16.9187 15.1373 19.9611L18.1269 22.2793C18.8379 20.1463 20.832 18.5622 23.18 18.5622Z" fill="#EA4335"/>
</g>
<defs>
<clipPath id="clip0_2499_50435">
<rect width="18" height="18" fill="white" transform="translate(14 15)"/>
</clipPath>
</defs>
</svg>
